<svg xmlns="http://www.w3.org/2000/svg" viewBox="0 0 64 64">
  <g fill="currentColor" clip-path="url(#a)">
    <path fill-rule="evenodd" d="M2.78 30.18A20.14 20.14 0 0 1 5.96 5.66 18.95 18.95 0 0 1 21.28.08c7.4.69 14.04 7.04 19.03 12.05.13.14.13.36 0 .5a.36.36 0 0 1-.5 0C34.95 7.77 28.4 1.45 21.21.79A18.25 18.25 0 0 0 6.46 6.17 19.43 19.43 0 0 0 3.4 29.83c.1.16.04.38-.13.48a.36.36 0 0 1-.49-.13ZM61.24 33.82a20.3 20.3 0 0 1-3.14 24.52 18.66 18.66 0 0 1-15.17 5.58c-7.32-.68-13.89-7.04-18.83-12.05a.36.36 0 0 1 0-.5.35.35 0 0 1 .5 0c4.8 4.87 11.28 11.18 18.4 11.84 5.49.51 10.72-1.43 14.6-5.37a19.58 19.58 0 0 0 3.03-23.66.36.36 0 0 1 .13-.49c.17-.1.39-.04.48.13Z" clip-rule="evenodd"/>
    <path fill-rule="evenodd" d="M34.45 2.31a20.44 20.44 0 0 1 24.47 4.27 18.64 18.64 0 0 1 4.9 15.44c-1.04 7.3-7.72 13.59-12.98 18.3a.36.36 0 0 1-.51-.03.35.35 0 0 1 .02-.5c5.11-4.57 11.75-10.77 12.75-17.86.77-5.47-.93-10.8-4.7-14.87a19.72 19.72 0 0 0-23.62-4.12.36.36 0 0 1-.48-.15.35.35 0 0 1 .15-.48ZM29.14 61.69a19.96 19.96 0 0 1-24.13-4.27A18.81 18.81 0 0 1 .19 41.97c1.01-7.3 7.6-13.58 12.8-18.29a.35.35 0 1 1 .47.52C8.42 28.78 1.86 34.98.88 42.07a18.1 18.1 0 0 0 4.65 14.87 19.26 19.26 0 0 0 23.29 4.12.35.35 0 1 1 .32.63Z" clip-rule="evenodd"/>
    <path d="m16.2 16.83 7.6 7.38 1.23-1.24-7.6-7.38-1.22 1.24ZM48.08 15.8l-7.05 7.03.73.76 7.06-7.04-.74-.76ZM49.23 47.17l-7.58-7.38-1.24 1.25L48 48.4l1.23-1.24ZM16.35 49.23l7.24-7.03-.76-.76-7.24 7.03.76.76Z"/>
    <path fill-rule="evenodd" d="M29.25 28.63c-.04.04-.58.58-.62.6-.16-.04-.73-.3-.81-.3-.1.04-.62 1.02-.67 1.12l.66.58c-.01.12-.17.5-.22.86l-.88.12v1.34l.48.08.33.07c.1.04.1.26.15.47.04.14.07.27.12.4-.14.14-.58.41-.67.55l.64 1.13c.21-.02.56-.22.81-.27l.1.09c.13.14.41.44.55.53l-.3.8c.1.1 1.02.63 1.14.67l.56-.62c.11.01.29.08.41.12l.45.1.15.81c.1.06 1.02 0 1.31.04.02-.18.07-.8.22-.85l.17-.04c.28-.06.41-.12.65-.18l.53.65 1.12-.64c0-.24-.25-.61-.25-.84.25-.19.4-.4.64-.62l.78.3c.1-.08.25-.41.33-.56.1-.15.26-.39.33-.57-.05-.08-.53-.5-.64-.54l.24-.88c.12-.07.65-.12.84-.14v-1.33c-.11-.03-.8-.13-.82-.17l-.26-.85c.23-.2.48-.35.67-.55-.06-.17-.51-.89-.65-1.15l-.83.3c-.22-.2-.39-.42-.63-.6.06-.26.3-.63.32-.87-.13-.03-.9-.54-1.14-.63l-.57.68c-.19-.02-.24-.07-.4-.12a1.76 1.76 0 0 0-.44-.09l-.12-.75c-.01-.1 0-.17-.1-.17h-1.19c-.1 0-.09.1-.1.21l-.14.74c-.2-.1-.63.14-.83.19l-.27-.37c-.07-.1-.2-.29-.28-.34-.09.03-.22.12-.3.17l-.58.32c-.13.06-.19.1-.28.16l.29.84Zm-3.6 3.58a6.68 6.68 0 1 1 13.32.25 6.66 6.66 0 0 1-13.33-.24Z" clip-rule="evenodd"/>
    <path d="M47.89 42.46h-.19a4.67 4.67 0 0 0-4.62 4.72c0 2.6 2.07 4.72 4.62 4.72h.19a4.67 4.67 0 0 0 4.62-4.72c0-2.6-2.07-4.72-4.62-4.72ZM51.28 16.57v-.12a2.9 2.9 0 0 0-2.87-2.91 2.9 2.9 0 0 0-2.87 2.91v.12a2.9 2.9 0 0 0 2.87 2.92 2.9 2.9 0 0 0 2.87-2.92ZM19.28 48.47v-.12a2.84 2.84 0 0 0-2.87-2.81 2.84 2.84 0 0 0-2.87 2.81v.12a2.84 2.84 0 0 0 2.87 2.81 2.84 2.84 0 0 0 2.87-2.81ZM21.54 17.12v-.2a4.77 4.77 0 0 0-4.72-4.82 4.77 4.77 0 0 0-4.72 4.83v.2a4.77 4.77 0 0 0 4.72 4.82c2.6 0 4.72-2.16 4.72-4.83Z"/>
    <path fill-rule="evenodd" d="M26.2 24.78c-.08.09-1.17 1.18-1.24 1.22-.33-.08-1.47-.62-1.62-.6-.18.06-1.24 2.05-1.35 2.24l1.33 1.17c-.03.24-.35 1-.45 1.73l-1.74.25v2.7c.31.04.67.11.95.16l.67.14c.18.07.18.53.29.93.07.29.15.56.24.8-.28.3-1.15.85-1.34 1.11l1.28 2.28c.42-.02 1.13-.44 1.63-.54l.19.18c.25.29.82.9 1.1 1.07l-.6 1.63c.2.18 2.04 1.26 2.27 1.32l1.12-1.24c.23.03.58.17.83.24l.9.2.28 1.64c.23.13 2.06 0 2.63.08.04-.37.15-1.6.45-1.72l.32-.07c.57-.13.83-.25 1.3-.37.37.43.73.9 1.06 1.32l2.26-1.28c0-.49-.5-1.25-.5-1.7.49-.39.78-.8 1.26-1.26l1.56.6c.19-.16.5-.81.67-1.1.18-.33.5-.8.65-1.16-.1-.15-1.07-1-1.28-1.09l.48-1.77c.24-.15 1.3-.25 1.69-.3v-2.66c-.23-.06-1.63-.27-1.65-.35l-.51-1.71c.44-.39.95-.7 1.33-1.11-.12-.33-1.02-1.78-1.3-2.3l-1.65.58c-.44-.37-.78-.83-1.26-1.2.11-.52.58-1.28.62-1.76-.26-.05-1.8-1.06-2.26-1.26l-1.15 1.38c-.37-.04-.48-.14-.8-.26-.26-.1-.55-.13-.88-.17l-.24-1.5c-.03-.22 0-.35-.18-.35h-2.38c-.22 0-.19.2-.22.42l-.27 1.5c-.4-.2-1.26.27-1.66.36-.17-.25-.35-.47-.55-.74-.14-.19-.39-.58-.56-.67-.16.06-.43.24-.6.34l-1.16.64c-.24.12-.36.2-.55.33l.58 1.68Zm-1.78 7.3c0-4.33 3.67-7.9 8.03-7.83a7.94 7.94 0 0 1 5.34 13.66 7.88 7.88 0 0 1-13.37-5.83Z" clip-rule="evenodd"/>
    <path d="m4.53 28.72 3.77-3.77c-2.26-7.54-.75-11.3 4.52-15.07 7.13-5.1 13.56 1.5 15.82 3.01 1.8 1.2 5.02-.25 6.03-.75-9.8-11.3-20.1-8.62-23.36-6.78-12.05 6.78-8.54 19.09-6.78 23.36ZM28.3 59.05l-3.8-3.8c-7.59 2.28-11.39.76-15.19-4.54-5.14-7.19 1.52-13.65 3.04-15.93 1.22-1.82-.25-5.05-.76-6.06-11.4 9.85-8.68 20.22-6.84 23.5 6.84 12.13 19.25 8.6 23.56 6.83ZM34.67 4.94l3.8 3.77c7.6-2.26 11.4-.75 15.2 4.52 5.13 7.13-1.53 13.56-3.05 15.82-1.21 1.8.26 5.02.76 6.03 11.4-9.8 8.69-20.1 6.84-23.36C51.38-.33 38.97 3.18 34.67 4.94ZM59.05 36.3l-3.8 3.78c2.28 7.53.76 11.3-4.54 15.07-7.19 5.1-13.65-1.5-15.93-3.02-1.82-1.2-5.05.25-6.06.76 9.85 11.3 20.22 8.61 23.5 6.78 12.13-6.78 8.6-19.1 6.83-23.36Z"/>
  </g>
  <defs>
    <clipPath id="a">
      <path fill="currentColor" d="M0 0h64v64H0z"/>
    </clipPath>
  </defs>
</svg>
