<svg xmlns="http://www.w3.org/2000/svg" fill="none" viewBox="0 0 32 32">
    <g clip-path="url(#a)">
        <path fill="#07F" d="M0 15.36C0 8.12 0 4.5 2.25 2.25S8.12 0 15.36 0h1.28c7.24 0 10.86 0 13.11 2.25S32 8.12 32 15.36v1.28c0 7.24 0 10.86-2.25 13.11S23.88 32 16.64 32h-1.28C8.12 32 4.5 32 2.25 29.75S0 23.88 0 16.64v-1.28Z"/>
        <path fill="#fff" d="M16.98 23C9.47 23 5.18 18.12 5 10h3.77c.12 5.96 2.9 8.48 5.1 9v-9h3.54v5.14c2.17-.22 4.45-2.56 5.22-5.14h3.55c-.6 3.18-3.07 5.52-4.83 6.48 1.76.78 4.58 2.82 5.65 6.52h-3.9a6.69 6.69 0 0 0-5.7-4.65V23h-.42Z"/>
    </g>
    <defs>
        <clipPath id="a">
            <path fill="#fff" d="M0 0h32v32H0z"/>
        </clipPath>
    </defs>
</svg>
